<svg xmlns="http://www.w3.org/2000/svg" viewBox="0 0 64 64"><defs><style>.cls-1{fill:#cdebfc;}.cls-2{fill:#a7ddfa;}.cls-3{fill:#f6f6f6;}.cls-4{fill:#cdcdcd;}.cls-5{fill:#999;}.cls-6{fill:#9b9ee0;}.cls-7{fill:#8687c9;}.cls-8{fill:#626393;}.cls-9{fill:#cdd2e1;}.cls-10{fill:#ffc247;}.cls-11{fill:#fc9942;}.cls-12{fill:none;stroke:#252439;stroke-linejoin:round;stroke-width:2px;}</style></defs><title>15-Safebox</title><g id="_15-Safebox" data-name="15-Safebox"><rect class="cls-1" x="1" y="4" width="62" height="44"/><path class="cls-2" d="M45.322,28.639a19.944,19.944,0,0,1-9.493.687c-5.249-.7-10.286-2.5-15.485-3.506S9.5,24.687,4.825,27.165A19.226,19.226,0,0,0,1,29.919V48H63V19.274a16.36,16.36,0,0,0-5.244,1.478C53.311,22.87,49.943,26.94,45.322,28.639Z"/><rect class="cls-3" x="1" y="42" width="62" height="6"/><rect class="cls-4" x="1" y="42" width="62" height="2"/><polygon class="cls-4" points="42 56 22 56 24 48 40 48 42 56"/><g id="_Group_" data-name="&lt;Group&gt;"><rect class="cls-3" x="18" y="56" width="28" height="4" rx="1" ry="1"/></g><polygon class="cls-5" points="40 48 24 48 23.5 50 40.5 50 40 48"/><path class="cls-6" d="M18,9H46a0,0,0,0,1,0,0V9A26,26,0,0,1,20,35H18a0,0,0,0,1,0,0V9A0,0,0,0,1,18,9Z"/><path class="cls-7" d="M40.563,9H46a0,0,0,0,1,0,0V9A26,26,0,0,1,20,35H18a0,0,0,0,1,0,0V31.563A22.563,22.563,0,0,1,40.563,9Z"/><path class="cls-8" d="M20,35H46V9A26,26,0,0,1,20,35Z"/><rect class="cls-9" x="15" y="14" width="6" height="4"/><rect class="cls-9" x="15" y="26" width="6" height="4"/><rect class="cls-9" x="21" y="35" width="4" height="3"/><rect class="cls-9" x="39" y="35" width="4" height="3"/><path class="cls-3" d="M30.05,17.05l2.83,2.83A2.993,2.993,0,0,0,32,22H28A6.958,6.958,0,0,1,30.05,17.05Z"/><path class="cls-3" d="M39.95,17.05l-2.83,2.83A2.993,2.993,0,0,0,35,19V15A6.958,6.958,0,0,1,39.95,17.05Z"/><path class="cls-3" d="M38,22h4a6.958,6.958,0,0,1-2.05,4.95l-2.83-2.83A2.993,2.993,0,0,0,38,22Z"/><path class="cls-3" d="M35,25v4a6.958,6.958,0,0,1-4.95-2.05l2.83-2.83A2.993,2.993,0,0,0,35,25Z"/><path class="cls-3" d="M32.88,24.12l-2.83,2.83A6.958,6.958,0,0,1,28,22h4A2.993,2.993,0,0,0,32.88,24.12Z"/><path class="cls-3" d="M37.12,24.12l2.83,2.83A6.958,6.958,0,0,1,35,29V25A2.993,2.993,0,0,0,37.12,24.12Z"/><path class="cls-3" d="M42,22H38a2.993,2.993,0,0,0-.88-2.12l2.83-2.83A6.958,6.958,0,0,1,42,22Z"/><path class="cls-3" d="M35,15v4a2.993,2.993,0,0,0-2.12.88l-2.83-2.83A6.958,6.958,0,0,1,35,15Z"/><path class="cls-10" d="M37.12,19.88A2.994,2.994,0,1,1,35,19,2.993,2.993,0,0,1,37.12,19.88Z"/><path class="cls-11" d="M37.12,19.88a3,3,0,0,0-1.261-.739A2.943,2.943,0,0,1,36,20a3,3,0,0,1-3,3,2.943,2.943,0,0,1-.859-.141A2.993,2.993,0,1,0,37.12,19.88Z"/><path class="cls-10" d="M51,34a2.006,2.006,0,0,1,2,2,2.015,2.015,0,0,1-2,2H45a2.006,2.006,0,0,1-2-2,1.752,1.752,0,0,1,.04-.4,1.935,1.935,0,0,1,.55-1.01A1.955,1.955,0,0,1,45,34Z"/><path class="cls-10" d="M51,30a2.006,2.006,0,0,1,2,2,2.015,2.015,0,0,1-2,2H45a2.006,2.006,0,0,1-2-2,2.015,2.015,0,0,1,2-2Z"/><path class="cls-10" d="M51,26a2.006,2.006,0,0,1,2,2,2.015,2.015,0,0,1-2,2H45a2.006,2.006,0,0,1-2-2,2.015,2.015,0,0,1,2-2h6Z"/><path class="cls-11" d="M51,26a2.015,2.015,0,0,1-2,2H43a2.006,2.006,0,0,0,2,2h6a2.015,2.015,0,0,0,2-2A2.006,2.006,0,0,0,51,26Z"/><path class="cls-11" d="M51,30a2.015,2.015,0,0,1-2,2H43a2.006,2.006,0,0,0,2,2h6a2.015,2.015,0,0,0,2-2A2.006,2.006,0,0,0,51,30Z"/><path class="cls-11" d="M51,34a2.015,2.015,0,0,1-2,2H43a2.006,2.006,0,0,0,2,2h6a2.015,2.015,0,0,0,2-2A2.006,2.006,0,0,0,51,34Z"/><line class="cls-12" x1="40" y1="48" x2="42" y2="56"/><line class="cls-12" x1="22" y1="56" x2="24" y2="48"/><path class="cls-12" d="M22,56H19a1,1,0,0,0-1,1v2a1,1,0,0,0,1,1H45a1,1,0,0,0,1-1V57a1,1,0,0,0-1-1H22Z"/><polyline class="cls-12" points="1 42 1 4 63 4 63 42"/><polygon class="cls-12" points="63 42 1 42 1 48 24 48 40 48 63 48 63 42"/><polyline class="cls-12" points="18 30 18 35 21 35 25 35 39 35 41 35"/><polyline class="cls-12" points="18 14 18 9 46 9 46 23"/><polygon class="cls-12" points="18 14 21 14 21 18 18 18 15 18 15 14 18 14"/><polygon class="cls-12" points="18 26 21 26 21 30 18 30 15 30 15 26 18 26"/><line class="cls-12" x1="18" y1="18" x2="18" y2="26"/><polyline class="cls-12" points="21 35 21 38 25 38 25 35"/><polyline class="cls-12" points="39 35 39 38 41 38"/><path class="cls-12" d="M42,22a7,7,0,1,0-2.05,4.95A6.958,6.958,0,0,0,42,22Z"/><path class="cls-12" d="M38,22a3,3,0,1,0-.88,2.12A2.993,2.993,0,0,0,38,22Z"/><line class="cls-12" x1="35" y1="19" x2="35" y2="15"/><line class="cls-12" x1="35" y1="29" x2="35" y2="25"/><line class="cls-12" x1="38" y1="22" x2="42" y2="22"/><line class="cls-12" x1="28" y1="22" x2="32" y2="22"/><line class="cls-12" x1="37.12" y1="24.12" x2="39.95" y2="26.95"/><line class="cls-12" x1="30.05" y1="17.05" x2="32.88" y2="19.88"/><line class="cls-12" x1="37.12" y1="19.88" x2="39.95" y2="17.05"/><line class="cls-12" x1="30.05" y1="26.95" x2="32.88" y2="24.12"/><path class="cls-12" d="M51,34a2.006,2.006,0,0,1,2,2,2.015,2.015,0,0,1-2,2H45a2.006,2.006,0,0,1-2-2,1.752,1.752,0,0,1,.04-.4,1.935,1.935,0,0,1,.55-1.01A1.955,1.955,0,0,1,45,34"/><path class="cls-12" d="M51,30a2.006,2.006,0,0,1,2,2,2.015,2.015,0,0,1-2,2H45a2.006,2.006,0,0,1-2-2,2.015,2.015,0,0,1,2-2"/><path class="cls-12" d="M51,30H45a2.006,2.006,0,0,1-2-2,2.015,2.015,0,0,1,2-2h6a2.006,2.006,0,0,1,2,2,2.015,2.015,0,0,1-2,2Z"/><line class="cls-12" x1="60" y1="38" x2="58" y2="38"/><line class="cls-12" x1="55" y1="34" x2="60" y2="34"/><line class="cls-12" x1="55" y1="30" x2="60" y2="30"/><line class="cls-12" x1="4" y1="38" x2="6" y2="38"/><line class="cls-12" x1="9" y1="34" x2="4" y2="34"/><line class="cls-12" x1="9" y1="30" x2="4" y2="30"/></g></svg>